<svg xmlns="http://www.w3.org/2000/svg" xmlns:xlink="http://www.w3.org/1999/xlink" viewBox="0 0 251.9 319.79"><defs><style>.cls-1{font-size:16.86px;stroke:#000;font-family:FranklinGothic-HeavyItalic, Franklin Gothic Heavy;font-weight:800;font-style:italic;}.cls-1,.cls-3,.cls-4,.cls-5,.cls-6{stroke-miterlimit:10;}.cls-2{letter-spacing:-0.02em;}.cls-3{stroke:#fff;fill:url(#Degradado_sin_nombre_6);}.cls-4,.cls-5,.cls-6{stroke:#1d1d1b;stroke-width:0.5px;}.cls-4{fill:url(#Degradado_sin_nombre_3);}.cls-5{fill:url(#Degradado_sin_nombre_3-2);}.cls-6{fill:url(#Degradado_sin_nombre_3-3);}</style><linearGradient id="Degradado_sin_nombre_6" x1="120.71" y1="184.11" x2="321.87" y2="184.11" gradientTransform="matrix(1.26, 0, 0.02, 1.25, -156.46, -69.55)" gradientUnits="userSpaceOnUse"><stop offset="0" stop-color="#fff"/><stop offset="0.14" stop-color="#d0d0d0"/><stop offset="0.38" stop-color="#878787"/><stop offset="0.59" stop-color="#4d4d4d"/><stop offset="0.77" stop-color="#232323"/><stop offset="0.92" stop-color="#090909"/><stop offset="1"/></linearGradient><radialGradient id="Degradado_sin_nombre_3" cx="135.15" cy="177.58" r="55.88" gradientTransform="translate(1.12)" xlink:href="#Degradado_sin_nombre_6"/><radialGradient id="Degradado_sin_nombre_3-2" cx="107.01" cy="144.58" r="68.7" gradientTransform="translate(1.12)" xlink:href="#Degradado_sin_nombre_6"/><radialGradient id="Degradado_sin_nombre_3-3" cx="50.24" cy="77.58" r="9.95" gradientTransform="translate(1.12)" xlink:href="#Degradado_sin_nombre_6"/></defs><g id="Capa_2" data-name="Capa 2"><g id="Layer_1" data-name="Layer 1"><text class="cls-1" transform="matrix(-0.03, -1.99, 1, -0.02, 23.33, 249.7)">DEVE<tspan class="cls-2" x="41.17" y="0">L</tspan><tspan x="49.76" y="0">OPER</tspan></text><path class="cls-3" d="M240.6,219.8a156.26,156.26,0,0,1-10.69,22q-3.84,6.57-8.22,12.63a155,155,0,0,1-51.91,45.64,160.64,160.64,0,0,1-158.49-3.45Q5.83,293.37.69,289.8q4.79-6.93,9.1-14.32c1.62-2.76,3.16-5.52,4.65-8.31,3.26,2.34,6.66,4.57,10.19,6.66,47.13,27.85,104,23.95,145.3-5.36a129.66,129.66,0,0,0,36.9-40.32c1.88-3.21,3.62-6.48,5.19-9.8a129.45,129.45,0,0,0,11.45-38A132.17,132.17,0,0,0,220.81,130,135.24,135.24,0,0,0,164.1,49.75h0c-2-1.3-4-2.57-6-3.78a135.7,135.7,0,0,0-33.36-14.13s0,0-.09,0A133.4,133.4,0,0,0,27.18,42.43q-5.49,2.9-10.7,6.34c-.34-.69-.7-1.37-1-2.05-.6-1.19-1.22-2.36-1.84-3.53q-4.8-9-10.41-17.71A154.78,154.78,0,0,1,20,16.13a160.76,160.76,0,0,1,151.44,7.05A162.44,162.44,0,0,1,245,117.93a160.22,160.22,0,0,1,5.84,57.53A156,156,0,0,1,240.6,219.8Z"/><path class="cls-3" d="M240.6,219.8a156.26,156.26,0,0,1-10.69,22q-3.84,6.57-8.22,12.63a155,155,0,0,1-51.91,45.64,160.64,160.64,0,0,1-158.49-3.45Q5.83,293.37.69,289.8q4.79-6.93,9.1-14.32c1.62-2.76,3.16-5.52,4.65-8.31,3.26,2.34,6.66,4.57,10.19,6.66,47.13,27.85,104,23.95,145.3-5.36a129.66,129.66,0,0,0,36.9-40.32c1.88-3.21,3.62-6.48,5.19-9.8a129.45,129.45,0,0,0,11.45-38A132.17,132.17,0,0,0,220.81,130,135.24,135.24,0,0,0,164.1,49.75h0c-2-1.3-4-2.57-6-3.78a135.7,135.7,0,0,0-33.36-14.13s0,0-.09,0A133.4,133.4,0,0,0,27.18,42.43q-5.49,2.9-10.7,6.34c-.34-.69-.7-1.37-1-2.05-.6-1.19-1.22-2.36-1.84-3.53q-4.8-9-10.41-17.71A154.78,154.78,0,0,1,20,16.13a160.76,160.76,0,0,1,151.44,7.05A162.44,162.44,0,0,1,245,117.93a160.22,160.22,0,0,1,5.84,57.53A156,156,0,0,1,240.6,219.8Z"/><path class="cls-3" d="M197.44,280.93a156.49,156.49,0,0,1-27.66,19.13,160.64,160.64,0,0,1-158.49-3.45Q5.83,293.37.69,289.8q4.79-6.93,9.1-14.32c1.62-2.76,3.16-5.52,4.65-8.31,3.26,2.34,6.66,4.57,10.19,6.66,47.13,27.85,104,23.95,145.3-5.36a129.66,129.66,0,0,0,36.9-40.32c1.88-3.21,3.62-6.48,5.19-9.8a129.45,129.45,0,0,0,11.45-38A132.17,132.17,0,0,0,220.81,130,135.24,135.24,0,0,0,164.1,49.75h0c-2-1.3-4-2.57-6-3.78a135.7,135.7,0,0,0-33.36-14.13s0,0-.09,0A133.4,133.4,0,0,0,27.18,42.43q-5.49,2.9-10.7,6.34c-.34-.69-.7-1.37-1-2.05-.6-1.19-1.22-2.36-1.84-3.53q-4.8-9-10.41-17.71A154.78,154.78,0,0,1,20,16.13a160.76,160.76,0,0,1,151.44,7.05A162.44,162.44,0,0,1,245,117.93a160.22,160.22,0,0,1,5.84,57.53,156.13,156.13,0,0,1-21,66.33q-3.84,6.57-8.22,12.63A155.4,155.4,0,0,1,197.44,280.93Z"/><path class="cls-3" d="M197.44,280.93a156.49,156.49,0,0,1-27.66,19.13,160.64,160.64,0,0,1-158.49-3.45Q5.83,293.37.69,289.8q4.79-6.93,9.1-14.32c1.62-2.76,3.16-5.52,4.65-8.31,3.26,2.34,6.66,4.57,10.19,6.66,47.13,27.85,104,23.95,145.3-5.36a129.66,129.66,0,0,0,36.9-40.32c1.88-3.21,3.62-6.48,5.19-9.8a129.45,129.45,0,0,0,11.45-38A132.17,132.17,0,0,0,220.81,130,135.24,135.24,0,0,0,164.1,49.75h0c-2-1.3-4-2.57-6-3.78a135.7,135.7,0,0,0-33.36-14.13s0,0-.09,0A133.4,133.4,0,0,0,27.18,42.43q-5.49,2.9-10.7,6.34c-.34-.69-.7-1.37-1-2.05-.6-1.19-1.22-2.36-1.84-3.53q-4.8-9-10.41-17.71A154.78,154.78,0,0,1,20,16.13a160.76,160.76,0,0,1,151.44,7.05A162.44,162.44,0,0,1,245,117.93a160.22,160.22,0,0,1,5.84,57.53,156.13,156.13,0,0,1-21,66.33q-3.84,6.57-8.22,12.63A155.4,155.4,0,0,1,197.44,280.93Z"/><path class="cls-3" d="M229.91,241.79q-3.84,6.57-8.22,12.63a155,155,0,0,1-51.91,45.64,160.64,160.64,0,0,1-158.49-3.45Q5.83,293.37.69,289.8q4.79-6.93,9.1-14.32c1.62-2.76,3.16-5.52,4.65-8.31,3.26,2.34,6.66,4.57,10.19,6.66,47.13,27.85,104,23.95,145.3-5.36a129.66,129.66,0,0,0,36.9-40.32c1.88-3.21,3.62-6.48,5.19-9.8a129.45,129.45,0,0,0,11.45-38A132.17,132.17,0,0,0,220.81,130,135.24,135.24,0,0,0,164.1,49.75h0c-2-1.3-4-2.57-6-3.78a135.7,135.7,0,0,0-33.36-14.13s0,0-.09,0A133.4,133.4,0,0,0,27.18,42.43q-5.49,2.9-10.7,6.34c-.34-.69-.7-1.37-1-2.05-.6-1.19-1.22-2.36-1.84-3.53q-4.8-9-10.41-17.71A154.78,154.78,0,0,1,20,16.13a160.76,160.76,0,0,1,151.44,7.05A162.44,162.44,0,0,1,245,117.93a160.22,160.22,0,0,1,5.84,57.53,156.13,156.13,0,0,1-21,66.33Z"/><polygon class="cls-4" points="178.12 217.08 178.12 244.08 93.12 244.08 93.12 111.08 121.12 111.08 121.12 217.08 178.12 217.08"/><polygon class="cls-5" points="178.12 78.08 178.12 211.08 151.12 211.08 151.12 130.09 150.15 131.86 135.98 157.97 121.81 184.08 93.46 184.08 79.29 157.97 65.12 131.86 65.12 210.08 37.12 210.08 37.12 78.08 65.18 78.08 79.21 104.52 93.24 130.94 107.27 157.35 121.3 130.94 135.33 104.52 149.36 78.08 150.31 78.08 150.31 78.08 178.12 78.08"/><rect class="cls-6" x="37.12" y="77.08" width="28" height="1"/></g></g></svg>