<svg xmlns="http://www.w3.org/2000/svg" xmlns:xlink="http://www.w3.org/1999/xlink" viewBox="0 0 192.57 235.03"><defs><style>.cls-1{stroke:#9d9d9c;fill:url(#Degradado_sin_nombre_6);}.cls-1,.cls-2,.cls-3,.cls-4{stroke-miterlimit:10;}.cls-1,.cls-3{stroke-width:0.5px;}.cls-2,.cls-3,.cls-4{fill:#1d1d1b;}.cls-2{stroke:#70c8f2;}.cls-3{stroke:#9ec9ed;}.cls-4{font-size:14.58px;stroke:#0099cd;font-family:FranklinGothic-HeavyItalic, Franklin Gothic Heavy;font-weight:800;font-style:italic;}.cls-5{letter-spacing:-0.02em;}</style><linearGradient id="Degradado_sin_nombre_6" x1="3.91" y1="132.98" x2="206.02" y2="132.98" gradientTransform="matrix(0.92, -0.03, 0.03, 0.92, -0.34, -1.8)" gradientUnits="userSpaceOnUse"><stop offset="0" stop-color="#fff"/><stop offset="0.14" stop-color="#d0d0d0"/><stop offset="0.38" stop-color="#878787"/><stop offset="0.59" stop-color="#4d4d4d"/><stop offset="0.77" stop-color="#232323"/><stop offset="0.92" stop-color="#090909"/><stop offset="1"/></linearGradient></defs><g id="Capa_2" data-name="Capa 2"><g id="Layer_1" data-name="Layer 1"><path class="cls-1" d="M185.16,157.8a118.14,118.14,0,0,1-7.53,16.44q-2.73,4.94-5.85,9.5A117.19,117.19,0,0,1,18.33,220.11c-2.69-1.49-5.31-3.08-7.84-4.74,2.26-3.47,4.42-7.07,6.46-10.76,1.15-2.07,2.24-4.14,3.29-6.23q3.63,2.46,7.56,4.64a97.63,97.63,0,0,0,132.75-38.23c1.34-2.41,2.57-4.86,3.67-7.34a96.6,96.6,0,0,0,7.87-28.28,97.71,97.71,0,0,0-45.2-94.53h0c-1.45-.91-2.95-1.79-4.46-2.63a97.15,97.15,0,0,0-24.61-9.55s0,0-.06,0A97.84,97.84,0,0,0,26.57,32.73q-4,2.28-7.75,4.94L18,36.18c-.46-.85-.93-1.7-1.4-2.55-2.42-4.35-5-8.61-7.85-12.76a115.44,115.44,0,0,1,12.16-7.3A117.17,117.17,0,0,1,185.16,157.8Z"/><path class="cls-1" d="M185.16,157.8a118.14,118.14,0,0,1-7.53,16.44q-2.73,4.94-5.85,9.5A117.19,117.19,0,0,1,18.33,220.11c-2.69-1.49-5.31-3.08-7.84-4.74,2.26-3.47,4.42-7.07,6.46-10.76,1.15-2.07,2.24-4.14,3.29-6.23q3.63,2.46,7.56,4.64a97.63,97.63,0,0,0,132.75-38.23c1.34-2.41,2.57-4.86,3.67-7.34a96.6,96.6,0,0,0,7.87-28.28,97.71,97.71,0,0,0-45.2-94.53h0c-1.45-.91-2.95-1.79-4.46-2.63a97.15,97.15,0,0,0-24.61-9.55s0,0-.06,0A97.84,97.84,0,0,0,26.57,32.73q-4,2.28-7.75,4.94L18,36.18c-.46-.85-.93-1.7-1.4-2.55-2.42-4.35-5-8.61-7.85-12.76a115.44,115.44,0,0,1,12.16-7.3A117.17,117.17,0,0,1,185.16,157.8Z"/><path class="cls-1" d="M154.38,203.86a117.32,117.32,0,0,1-136,16.25c-2.69-1.49-5.31-3.08-7.84-4.74,2.26-3.47,4.42-7.07,6.46-10.76,1.15-2.07,2.24-4.14,3.29-6.23q3.63,2.46,7.56,4.64a97.63,97.63,0,0,0,132.75-38.23c1.34-2.41,2.57-4.86,3.67-7.34a96.6,96.6,0,0,0,7.87-28.28,97.71,97.71,0,0,0-45.2-94.53h0c-1.45-.91-2.95-1.79-4.46-2.63a97.15,97.15,0,0,0-24.61-9.55s0,0-.06,0A97.84,97.84,0,0,0,26.57,32.73q-4,2.28-7.75,4.94L18,36.18c-.46-.85-.93-1.7-1.4-2.55-2.42-4.35-5-8.61-7.85-12.76a115.44,115.44,0,0,1,12.16-7.3A117.17,117.17,0,0,1,185.16,157.8a118.14,118.14,0,0,1-7.53,16.44q-2.73,4.94-5.85,9.5A116.7,116.7,0,0,1,154.38,203.86Z"/><path class="cls-1" d="M154.38,203.86a117.32,117.32,0,0,1-136,16.25c-2.69-1.49-5.31-3.08-7.84-4.74,2.26-3.47,4.42-7.07,6.46-10.76,1.15-2.07,2.24-4.14,3.29-6.23q3.63,2.46,7.56,4.64a97.63,97.63,0,0,0,132.75-38.23c1.34-2.41,2.57-4.86,3.67-7.34a96.6,96.6,0,0,0,7.87-28.28,97.71,97.71,0,0,0-45.2-94.53h0c-1.45-.91-2.95-1.79-4.46-2.63a97.15,97.15,0,0,0-24.61-9.55s0,0-.06,0A97.84,97.84,0,0,0,26.57,32.73q-4,2.28-7.75,4.94L18,36.18c-.46-.85-.93-1.7-1.4-2.55-2.42-4.35-5-8.61-7.85-12.76a115.44,115.44,0,0,1,12.16-7.3A117.17,117.17,0,0,1,185.16,157.8a118.14,118.14,0,0,1-7.53,16.44q-2.73,4.94-5.85,9.5A116.7,116.7,0,0,1,154.38,203.86Z"/><path class="cls-1" d="M177.63,174.24q-2.73,4.94-5.85,9.5A117.19,117.19,0,0,1,18.33,220.11c-2.69-1.49-5.31-3.08-7.84-4.74,2.26-3.47,4.42-7.07,6.46-10.76,1.15-2.07,2.24-4.14,3.29-6.23q3.63,2.46,7.56,4.64a97.63,97.63,0,0,0,132.75-38.23c1.34-2.41,2.57-4.86,3.67-7.34a96.6,96.6,0,0,0,7.87-28.28,97.71,97.71,0,0,0-45.2-94.53h0c-1.45-.91-2.95-1.79-4.46-2.63a97.15,97.15,0,0,0-24.61-9.55s0,0-.06,0A97.84,97.84,0,0,0,26.57,32.73q-4,2.28-7.75,4.94L18,36.18c-.46-.85-.93-1.7-1.4-2.55-2.42-4.35-5-8.61-7.85-12.76a115.44,115.44,0,0,1,12.16-7.3A117.17,117.17,0,0,1,185.16,157.8,118.14,118.14,0,0,1,177.63,174.24Z"/><polygon class="cls-2" points="144.15 162.04 134.6 181.14 77.3 181.14 67.75 162.04 67.75 66.54 86.85 66.54 86.85 162.04 144.15 162.04"/><polygon class="cls-3" points="150.6 62.89 141.05 82 131.5 101.1 121.95 120.2 112.4 139.3 102.85 158.4 83.75 158.4 74.2 139.3 64.65 120.2 55.1 101.1 45.55 82 36 62.89 55.1 62.89 64.65 82 74.2 101.1 83.75 120.2 93.3 139.3 102.85 120.2 112.4 101.1 121.95 82 131.5 62.89 150.6 62.89"/><text class="cls-4" transform="translate(5 66.54) rotate(63.93) scale(1.7 1)">DEVE<tspan class="cls-5" x="35.59" y="0">L</tspan><tspan x="43.02" y="0">OPER</tspan></text></g></g></svg>